<!DOCTYPE svg PUBLIC "-//W3C//DTD SVG 1.1//EN" "http://www.w3.org/Graphics/SVG/1.1/DTD/svg11.dtd">
<!-- Uploaded to: SVG Repo, www.svgrepo.com, Transformed by: SVG Repo Mixer Tools -->
<svg version="1.1" id="Layer_1" xmlns="http://www.w3.org/2000/svg" xmlns:xlink="http://www.w3.org/1999/xlink" viewBox="0 0 512 512" xml:space="preserve" width="800px" height="800px" fill="#000000">
<g id="SVGRepo_bgCarrier" stroke-width="0"/>
<g id="SVGRepo_tracerCarrier" stroke-linecap="round" stroke-linejoin="round"/>
<g id="SVGRepo_iconCarrier"> <g> <rect x="235.102" y="415.347" style="fill:#4B92B9;" width="41.796" height="62.694"/> <path style="fill:#4B92B9;" d="M256,373.551L256,373.551c-61.676,0-111.673-49.997-111.673-111.673V119.51 C144.327,57.834,194.325,7.837,256,7.837l0,0c61.675,0,111.673,49.997,111.673,111.673v142.367 C367.673,323.554,317.675,373.551,256,373.551z"/> </g> <path style="fill:#79CAE8;" d="M367.679,220.473v41.409c0,61.67-49.998,111.668-111.679,111.668s-111.679-49.998-111.679-111.668 v-41.409H367.679z"/> <rect x="85.682" y="160.914" style="fill:#CAF9F4;" width="340.637" height="59.559"/> <rect x="177.633" y="478.041" style="fill:#4B92B9;" width="156.735" height="26.122"/> <path d="M284.735,434.824h-15.673v35.38h-26.122v-35.38h-15.673v35.38h-57.469V512h172.408v-41.796h-57.469V434.824z M326.531,496.327H185.469v-10.449h141.061V496.327z"/> <path d="M434.155,153.078h-103.32V47.522c18.718,19.437,29.006,44.917,29.006,71.983v20.511h15.673v-20.511 c0-31.924-12.429-61.934-35-84.505C317.945,12.43,287.93,0,256,0c-65.901,0-119.515,53.611-119.515,119.505v20.511h15.673v-20.511 c0-27.88,11.05-53.226,28.996-71.898v105.471H77.845v75.233h18.124v34.842c0,88.242,71.79,160.031,160.031,160.031 s160.031-71.79,160.031-160.031V228.31h18.124V153.078z M286.166,153.078V20.099c10.321,3.116,20.087,7.842,28.996,14.042v118.937 H286.166z M270.493,16.677v136.401h-28.996V16.691c4.742-0.666,9.582-1.018,14.503-1.018 C260.892,15.673,265.731,16.016,270.493,16.677z M196.827,34.231c8.779-6.11,18.54-10.899,28.996-14.081v132.928h-28.996V34.231z M111.642,263.152V228.31h24.842v33.573c0,63.261,49.417,115.192,111.679,119.242v26.172 C172.195,403.21,111.642,340.122,111.642,263.152z M256,365.714c-57.258,0-103.842-46.578-103.842-103.831V228.31h207.684v33.573 C359.842,319.136,313.258,365.714,256,365.714z M400.358,263.152c0,76.969-60.553,140.059-136.521,144.144v-26.172 c62.261-4.05,111.679-55.979,111.679-119.242V228.31h24.842V263.152z M418.482,212.637H93.518v-43.886h324.963V212.637z"/> </g>
</svg>