<svg width="123" height="107" viewBox="0 0 123 107" fill="none" xmlns="http://www.w3.org/2000/svg">
<g clip-path="url(#clip0_364_297)">
<path fillRule="evenodd" clipRule="evenodd" d="M122.88 93.62C122.88 100.93 111.56 106.87 97.62 106.87C83.68 106.87 72.36 100.93 72.36 93.62C72.373 92.207 72.7705 90.8241 73.51 89.62C76.73 95 86.31 99 97.62 99C105.09 99 117.52 96.78 121.73 89.71C122.473 90.9125 122.871 92.2964 122.88 93.71V93.62ZM61.88 90.62C61.88 99.62 48.01 106.85 30.93 106.85C13.85 106.85 0 99.59 0 90.64C0.0229492 88.9224 0.510163 87.2431 1.41 85.78C5.41 92.37 17.09 97.16 30.96 97.16C40.11 97.16 55.33 94.45 60.49 85.78C61.398 87.24 61.8891 88.9207 61.91 90.64L61.88 90.62ZM62.05 73.72C62.05 82.72 48.19 89.95 31.1 89.95C14.01 89.95 0.18 82.7 0.18 73.74C0.20276 72.0255 0.690056 70.3494 1.59 68.89C5.53 75.48 17.27 80.26 31.13 80.26C40.29 80.26 55.51 77.55 60.67 68.89C61.5695 70.3496 62.0567 72.0256 62.08 73.74L62.05 73.72ZM42.31 31.62L41.95 35.62L26.76 34.32C28.0141 35.9288 28.9015 37.7923 29.36 39.78L25.7 39.46C25.3573 38.1816 24.7994 36.9709 24.05 35.88C23.3017 34.6469 22.2059 33.6624 20.9 33.05L21.19 29.79L42.31 31.62ZM31.6 25.31C45.42 25.31 56.6 29.85 56.6 35.31C56.6 40.77 45.2 45.31 31.16 45.31C17.12 45.31 5.72 40.83 5.72 35.31C5.72 29.79 16.72 25.43 30.49 25.31H31.6ZM31.5 22C48.41 22 62.08 29.33 62.08 38.23C62.08 47.13 48.22 54.46 31.13 54.46C14.04 54.46 0.18 47.18 0.18 38.23C0.18 29.28 13.85 22.06 30.78 22H31.5ZM62.08 56.31C62.08 65.31 48.22 72.53 31.13 72.53C14.04 72.53 0.18 65.26 0.18 56.31C0.186445 54.6667 0.639238 53.056 1.49 51.65C5.3 58.33 17.12 63.22 31.13 63.22C40.3 63.22 55.74 60.46 60.77 51.65C61.609 53.061 62.0609 54.6685 62.08 56.31ZM80.64 28.13C79.6852 27.0572 79.1957 25.649 79.2792 24.2153C79.3626 22.7816 80.0122 21.4398 81.085 20.485C82.1578 19.5302 83.5659 19.0407 84.9997 19.1241C86.4334 19.2076 87.7752 19.8572 88.73 20.93L92.2 24.84L92.33 5.37998C92.33 4.67084 92.4697 3.96865 92.7411 3.31349C93.0124 2.65833 93.4102 2.06304 93.9116 1.5616C94.4131 1.06017 95.0084 0.662406 95.6635 0.391031C96.3187 0.119656 97.0209 -0.0200195 97.73 -0.0200195C98.4391 -0.0200195 99.1413 0.119656 99.7965 0.391031C100.452 0.662406 101.047 1.06017 101.548 1.5616C102.05 2.06304 102.448 2.65833 102.719 3.31349C102.99 3.96865 103.13 4.67084 103.13 5.37998L103 25.53L107 22C107.531 21.5279 108.15 21.165 108.822 20.9321C109.493 20.6993 110.204 20.6009 110.913 20.6427C111.623 20.6845 112.317 20.8656 112.956 21.1757C113.596 21.4858 114.168 21.9188 114.64 22.45C115.112 22.9812 115.475 23.6002 115.708 24.2716C115.941 24.943 116.039 25.6537 115.997 26.3632C115.956 27.0726 115.774 27.7669 115.464 28.4063C115.154 29.0458 114.721 29.6179 114.19 30.09L101.84 41.09C101.424 41.6391 100.904 42.1012 100.31 42.45C99.2283 43.3264 97.8503 43.7521 96.4627 43.6385C95.0751 43.5249 93.7847 42.8807 92.86 41.84L80.64 28.13ZM106.74 58.13L106.45 61.41L94.05 60.33C95.0799 61.6416 95.8072 63.1646 96.18 64.79L93.18 64.53C92.9045 63.4837 92.4513 62.4926 91.84 61.6C91.2242 60.5968 90.327 59.797 89.26 59.3L89.5 56.63L106.73 58.13H106.74ZM99 53C109.83 53.27 118.41 56.81 118.41 61.12C118.41 65.63 109.11 69.26 97.65 69.26C86.19 69.26 76.86 65.59 76.86 61.1C76.86 56.61 85.57 53.19 96.51 53C97.33 53 98.15 53 98.97 53H99ZM98.89 50.29C112.26 50.63 122.89 56.43 122.89 63.52C122.89 70.83 111.57 76.76 97.63 76.76C83.69 76.76 72.36 70.81 72.36 63.5C72.36 56.38 83.1 50.56 96.54 50.27C97.32 50.27 98.08 50.27 98.86 50.27L98.89 50.29ZM122.89 78.84C122.89 86.15 111.57 92.09 97.63 92.09C83.69 92.09 72.36 86.13 72.36 78.82C72.3603 77.4727 72.7304 76.1514 73.43 75C76.54 80.45 86.19 84.44 97.62 84.44C105.1 84.44 117.71 82.19 121.81 75C122.493 76.1512 122.862 77.4615 122.88 78.8L122.89 78.84Z" fill="white"/>
</g>
<defs>
<clipPath id="clip0_364_297">
<rect width="122.88" height="106.87" fill="white"/>
</clipPath>
</defs>
</svg>
