<svg width="33" height="32" viewBox="0 0 33 32" fill="none" xmlns="http://www.w3.org/2000/svg">
<path d="M27.6145 29.3333V2.66667C27.6145 1.91111 27.8486 1.27778 28.3168 0.766667C28.785 0.255557 29.3651 0 30.0573 0C30.7494 0 31.3295 0.255557 31.7977 0.766667C32.2659 1.27778 32.5 1.91111 32.5 2.66667V29.3333C32.5 30.0889 32.2659 30.7222 31.7977 31.2333C31.3295 31.7444 30.7494 32 30.0573 32C29.3651 32 28.785 31.7444 28.3168 31.2333C27.8486 30.7222 27.6145 30.0889 27.6145 29.3333ZM4.22519 28.5332C3.41094 29.0665 2.58651 29.0665 1.75191 28.5332C0.917303 27.9999 0.5 27.2221 0.5 26.1999V3.6666C0.5 2.64438 0.917303 1.8666 1.75191 1.33327C2.58651 0.799939 3.41094 0.799939 4.22519 1.33327L21.4466 12.6666C22.2608 13.1999 22.6679 13.9555 22.6679 14.9332C22.6679 15.911 22.2608 16.6666 21.4466 17.1999L4.22519 28.5332Z" fill="#4D62E5"/>
</svg>
